<svg xmlns="http://www.w3.org/2000/svg" viewBox="0 0 64 64">
  <rect width="64" height="64" rx="16" fill="#1c1917"/>
  <path d="M32 12c-9.9 0-18 8.1-18 18 0 7.6 4.8 14.2 11.5 16.8 1.1.4 2.2-.6 1.8-1.7-1.2-3.5-.2-7.4 2.6-10.2l4.9-4.9c2.9-2.9 3.8-7.2 2.4-11 5.6 2 9.6 7.3 9.6 13.6 0 8-6.5 14.5-14.5 14.5-1.8 0-3.6-.3-5.2-.9" fill="none" stroke="#fafaf9" stroke-width="4" stroke-linecap="round" stroke-linejoin="round"/>
  <path d="M22 30c0-5.5 4.5-10 10-10" fill="none" stroke="#d6d3d1" stroke-width="4" stroke-linecap="round"/>
</svg>
